# xmcd CD database file
#
# Track frame offsets:
#	150
#	18636
#	33388
#	51997
#	65295
#	85101
#	103783
#	117974
#	135295
#	152855
#	175456
#	195485
#	212090
#	229733
#	247550
#	257889
#	276879
#	293348
#	310891
#
# Disc length: 4374 seconds
#
# Revision: 3
# Processed by: cddbd v1.5.2PL0 Copyright (c) Steve Scherf et al.
# Submitted via: CDex 1.70beta3
#
DISCID=04111413
DTITLE=チャットモンチー - 表情 <Coupling Collection>
DYEAR=2010
DGENRE=Rock
TTITLE0=手の中の残り日 (Album Mix)
TTITLE1=湯気 (Album Mix)
TTITLE2=小さなキラキラ
TTITLE3=RPG
TTITLE4=リアル
TTITLE5=片道切符
TTITLE6=迷迷ひつじ
TTITLE7=風
TTITLE8=コスモタウン
TTITLE9=バスロマンス (Album Mix)
TTITLE10=three sheep (Album Mix)
TTITLE11=Ｙ氏の夕方 (Album Mix)
TTITLE12=愛捨てた
TTITLE13=決まらないTURN (Album Mix)
TTITLE14=意気地アリ
TTITLE15=ドッペルゲンガー
TTITLE16=春夏秋
TTITLE17=Good luck my sister!!
TTITLE18=推進力
EXTD=YEAR: 2010
EXTT0=
EXTT1=
EXTT2=
EXTT3=
EXTT4=
EXTT5=
EXTT6=
EXTT7=
EXTT8=
EXTT9=
EXTT10=
EXTT11=
EXTT12=
EXTT13=
EXTT14=
EXTT15=
EXTT16=
EXTT17=
EXTT18=
PLAYORDER=
